<svg xmlns="http://www.w3.org/2000/svg" xmlns:xlink="http://www.w3.org/1999/xlink" width="576.96" height="361.5" viewBox="0 0 576.96 361.5">
  <defs>
    <filter id="a1" x="145.159" y="75.5" width="280" height="280" filterUnits="userSpaceOnUse">
      <feOffset dy="3" input="SourceAlpha" />
      <feGaussianBlur stdDeviation="3" result="b" />
      <feFlood flood-opacity="0.161" />
      <feComposite operator="in" in2="b" />
      <feComposite in="SourceGraphic" />
    </filter>
    <linearGradient id="c1" x1="0.5" x2="0.656" y2="1.08" gradientUnits="objectBoundingBox">
      <stop offset="0" stop-color="#100f1c" stop-opacity="0.11" />
      <stop offset="1" stop-color="#5f5e67" stop-opacity="0" />
    </linearGradient>
    <linearGradient id="d1" x1="0.5" x2="0.656" y2="1.08" gradientUnits="objectBoundingBox">
      <stop offset="0" stop-color="#fff" stop-opacity="0.482" />
      <stop offset="1" stop-color="#5f5e67" stop-opacity="0" />
    </linearGradient>
    <filter id="e1" x="194.27" y="94.61" width="178.899" height="178.899" filterUnits="userSpaceOnUse">
      <feOffset dy="3" input="SourceAlpha" />
      <feGaussianBlur stdDeviation="3" result="f" />
      <feFlood flood-opacity="0.412" />
      <feComposite operator="in" in2="f" />
      <feComposite in="SourceGraphic" />
    </filter>
    <linearGradient id="g1" x1="0.458" y1="-0.62" x2="0.5" y2="1" gradientUnits="objectBoundingBox">
      <stop offset="0" stop-color="#fff" />
      <stop offset="1" stop-color="gray" stop-opacity="0" />
    </linearGradient>
    <filter id="h1" x="0" y="108.246" width="196.72" height="195.254" filterUnits="userSpaceOnUse">
      <feOffset dy="3" input="SourceAlpha" />
      <feGaussianBlur stdDeviation="3" result="i" />
      <feFlood flood-opacity="0.161" />
      <feComposite operator="in" in2="i" />
      <feComposite in="SourceGraphic" />
    </filter>
    <filter id="j1" x="79.159" y="136.5" width="137" height="53" filterUnits="userSpaceOnUse">
      <feOffset dy="3" input="SourceAlpha" />
      <feGaussianBlur stdDeviation="3" result="k" />
      <feFlood flood-color="#a3c5f9" flood-opacity="0.482" />
      <feComposite operator="in" in2="k" />
      <feComposite in="SourceGraphic" />
    </filter>
    <filter id="l1" x="84.159" y="304.5" width="57" height="57" filterUnits="userSpaceOnUse">
      <feOffset dy="3" input="SourceAlpha" />
      <feGaussianBlur stdDeviation="3" result="m" />
      <feFlood flood-color="#72d096" flood-opacity="0.204" />
      <feComposite operator="in" in2="m" />
      <feComposite in="SourceGraphic" />
    </filter>
    <filter id="n1" x="375.659" y="0" width="77" height="77" filterUnits="userSpaceOnUse">
      <feOffset dy="5" input="SourceAlpha" />
      <feGaussianBlur stdDeviation="5.5" result="o" />
      <feFlood flood-color="#c272d0" flood-opacity="0.29" />
      <feComposite operator="in" in2="o" />
      <feComposite in="SourceGraphic" />
    </filter>
    <filter id="p1" x="87.659" y="31" width="86" height="86" filterUnits="userSpaceOnUse">
      <feOffset dy="8" input="SourceAlpha" />
      <feGaussianBlur stdDeviation="6.5" result="q" />
      <feFlood flood-color="#72a5d0" flood-opacity="0.204" />
      <feComposite operator="in" in2="q" />
      <feComposite in="SourceGraphic" />
    </filter>
    <filter id="r1" x="396.892" y="180.363" width="37.045" height="38.1" filterUnits="userSpaceOnUse">
      <feOffset dy="2" input="SourceAlpha" />
      <feGaussianBlur stdDeviation="3" result="s" />
      <feFlood flood-color="#020d24" flood-opacity="0.361" />
      <feComposite operator="in" in2="s" />
      <feComposite in="SourceGraphic" />
    </filter>
    <filter id="t1" x="427.349" y="183.993" width="149.611" height="36.506" filterUnits="userSpaceOnUse">
      <feOffset dy="8" input="SourceAlpha" />
      <feGaussianBlur stdDeviation="3" result="u" />
      <feFlood flood-opacity="0.09" />
      <feComposite operator="in" in2="u" />
      <feComposite in="SourceGraphic" />
    </filter>
    <filter id="v1" x="392.656" y="173.313" width="50.022" height="40.109" filterUnits="userSpaceOnUse">
      <feOffset dy="3" input="SourceAlpha" />
      <feGaussianBlur stdDeviation="3" result="w" />
      <feFlood flood-color="#e9a919" flood-opacity="0.502" />
      <feComposite operator="in" in2="w" />
      <feComposite in="SourceGraphic" />
    </filter>
  </defs>
  <g transform="translate(-191.841 -248.5)">
   <g className="slide3_path3" transform="translate(-115 44)">
      <g transform="matrix(1, 0, 0, 1, 306.84, 204.5)" filter="url(#l1)">
        <g transform="translate(93.16 310.5)" fill="#72d096" stroke="#fff" stroke-width="2">
          <circle cx="19.5" cy="19.5" r="19.5" stroke="none" />
          <circle cx="19.5" cy="19.5" r="18.5" fill="none" />
        </g>
      </g>
      <g transform="translate(409.144 524.143)">
        <path d="M0,0H20.612V20.612H0Z" fill="none" />
        <path d="M16.6,7.294H4.577A2.573,2.573,0,0,0,2,9.871v5.153H5.435v3.435H15.742V15.024h3.435V9.871A2.573,2.573,0,0,0,16.6,7.294Zm-2.577,9.447H7.153V12.447h6.871ZM16.6,10.73a.859.859,0,1,1,.859-.859A.861.861,0,0,1,16.6,10.73ZM15.742,3H5.435V6.435H15.742Z" transform="translate(-0.282 -0.423)" fill="#fff" />
      </g>
    </g>
    <g className="slide3_path1" transform="translate(-101 -224.171)">
      <g transform="matrix(1, 0, 0, 1, 292.84, 472.67)" filter="url(#p1)">
        <g transform="translate(107.16 42.5)" fill="#72a5d0" stroke="#fff" stroke-width="2">
          <circle cx="23.5" cy="23.5" r="23.5" stroke="none" />
          <circle cx="23.5" cy="23.5" r="22.5" fill="none" />
        </g>
      </g>
      <g transform="translate(410.815 525.749)">
        <path d="M0,0H24.38V24.38H0Z" fill="none" />
      </g>
      <g transform="translate(410.267 525.202)">
        <path d="M0,0H26.133V26.133H0Z" fill="none" />
        <path d="M21.07,10.577A8.158,8.158,0,0,0,5.825,8.4a6.531,6.531,0,0,0,.708,13.023H20.688a5.429,5.429,0,0,0,.381-10.845ZM18.511,13.8l-5.063,5.063a.539.539,0,0,1-.773,0L7.622,13.8h3.267V9.444h4.355V13.8Z" transform="translate(0 0.355)" fill="#fff" />
      </g>
    </g>
    <g className="slide3_info3" transform="translate(164 52)">
      <g transform="matrix(1, 0, 0, 1, 27.84, 196.5)" filter="url(#a1)">
        <rect width="262" height="262" rx="12" transform="translate(154.16 81.5)" fill="rgba(22,70,147,0.4)" />
      </g>
      <rect width="262" height="262" rx="12" transform="translate(182 278)" fill="url(#c1)" />
      <rect width="262" height="262" rx="12" transform="translate(182 278)" opacity="0.13" fill="url(#d1)" style="mix-blend-mode:screen;isolation:isolate" />
      <g transform="translate(29.11 7.11)">
        <g transform="translate(189.101 423.459) rotate(-73)" fill="none" stroke="#e8e8e8" stroke-linecap="round" stroke-width="25" stroke-dasharray="131 1000" opacity="0.116">
          <circle cx="76" cy="76" r="76" stroke="none" />
          <circle cx="76" cy="76" r="63.5" fill="none" />
        </g>
        <g transform="matrix(-0.766, 0.643, -0.643, -0.766, 391.072, 382.267)" fill="none" stroke="#8814eb" stroke-linecap="round" stroke-width="25" stroke-dasharray="215 1000">
          <circle cx="76.079" cy="76.079" r="76.079" stroke="none" />
          <circle cx="76.079" cy="76.079" r="63.579" fill="none" />
        </g>
        <g transform="matrix(0.469, 0.883, -0.883, 0.469, 315.347, 270)" fill="none" stroke="#63dafd" stroke-linecap="round" stroke-width="25" stroke-dasharray="204 1000">
          <circle cx="76.079" cy="76.079" r="76.079" stroke="none" />
          <circle cx="76.079" cy="76.079" r="63.579" fill="none" />
        </g>
        <g transform="matrix(1, 0, 0, 1, -1.27, 189.39)" filter="url(#e1)">
          <g transform="translate(203.27 100.61)" fill="none" stroke="#eba914" stroke-linecap="round" stroke-width="32" stroke-dasharray="205 1000">
            <circle cx="80.45" cy="80.45" r="80.45" stroke="none" />
            <circle cx="80.45" cy="80.45" r="64.45" fill="none" />
          </g>
        </g>
      </g>
      <text transform="translate(281 389)" fill="#fff" font-size="16" font-family="Roboto-Medium, Roboto" font-weight="500" letter-spacing="0.015em">
        <tspan x="0" y="0">ASSETS</tspan>
      </text>
      <path d="M-3975.606,14.718A11.951,11.951,0,0,1-3968,12h238a12,12,0,0,1,12,12V233.507Z" transform="translate(4164.303 265)" opacity="0.082" fill="url(#g1)" />
      <g transform="translate(-17 -30)">
        <circle cx="3.5" cy="3.5" r="3.5" transform="translate(273 522)" fill="#eba914" />
        <rect width="26" height="7" rx="3.5" transform="translate(282 522)" fill="#0f1a2e" opacity="0.265" />
        <g transform="translate(44)">
          <circle cx="3.5" cy="3.5" r="3.5" transform="translate(273 522)" fill="#63dafd" />
          <rect width="26" height="7" rx="3.5" transform="translate(282 522)" fill="#0f1a2e" opacity="0.48" />
        </g>
        <g transform="translate(88)">
          <circle cx="3.5" cy="3.5" r="3.5" transform="translate(273 522)" fill="#8817eb" />
          <rect width="26" height="7" rx="3.5" transform="translate(282 522)" fill="#0f1a2e" opacity="0.265" />
        </g>
      </g>
    </g>
    <g className="slide3_info2" transform="translate(-81 -2)">
      <g transform="translate(99.841 86.746)">
        <g transform="translate(182 278)">
          <g transform="matrix(1, 0, 0, 1, -9, -114.25)" filter="url(#h1)">
            <rect width="178.72" height="177.254" rx="12" transform="translate(9 114.25)" fill="#fff" />
          </g>
        </g>
      </g>
      <g transform="translate(7 5)">
        <rect width="10" height="128" rx="5" transform="translate(299 388)" fill="#f4f4f4" />
        <rect width="10" height="67" rx="5" transform="translate(323 449)" fill="#f4f4f4" />
        <rect width="10" height="67" rx="5" transform="translate(347 449)" fill="#8817eb" />
        <rect width="10" height="83" rx="5" transform="translate(371 433)" fill="#f4f4f4" />
        <rect width="10" height="67" rx="5" transform="translate(395 449)" fill="#f4f4f4" />
        <rect width="10" height="28" rx="5" transform="translate(419 488)" fill="#f4f4f4" />
      </g>
      <g transform="matrix(1, 0, 0, 1, 272.84, 250.5)" filter="url(#j1)">
        <rect width="119" height="35" rx="7" transform="translate(88.16 142.5)" fill="#62a0ff" />
      </g>
      <text transform="translate(373 416)" fill="#fff" font-size="16" font-family="Raleway-SemiBold, Raleway" font-weight="600">
        <tspan x="0" y="0">Work Orders</tspan>
      </text>
    </g>
    <g className="slide3_path2" transform="translate(184 -255)">
      <g transform="matrix(1, 0, 0, 1, 7.84, 503.5)" filter="url(#n1)">
        <g transform="translate(392.16 11.5)" fill="#c272d0" stroke="#fff" stroke-width="2">
          <circle cx="22" cy="22" r="22" stroke="none" />
          <circle cx="22" cy="22" r="21" fill="none" />
        </g>
      </g>
      <g transform="translate(410.249 525.249)">
        <path d="M0,0H23.1V23.1H0Z" fill="none" />
      </g>
      <g transform="translate(410.572 525.572)">
        <rect width="22" height="22" transform="translate(0.429 0.428)" fill="none" />
        <g transform="translate(1.626 2.378)">
          <path d="M6.4,20.952H2.979a.991.991,0,0,1-.979-1V9.981a.991.991,0,0,1,.979-1H6.4a.991.991,0,0,1,.979,1v9.973A.991.991,0,0,1,6.4,20.952ZM13.5,3H10.074A.991.991,0,0,0,9.1,4V19.955a.991.991,0,0,0,.979,1H13.5a.991.991,0,0,0,.979-1V4A.991.991,0,0,0,13.5,3Zm7.1,7.979H17.17a.991.991,0,0,0-.979,1v7.979a.991.991,0,0,0,.979,1H20.6a.991.991,0,0,0,.979-1V11.976A.991.991,0,0,0,20.6,10.979Z" transform="translate(-2 -3)" fill="#fff" />
        </g>
      </g>
    </g>
    <g className="slide3_mini1" transform="translate(672.5 324.818)" fill="none" stroke-linecap="round" stroke-linejoin="round">
      <path d="M6.591,0l6.591,6.591L6.591,13.182,0,6.591Z" stroke="none" />
      <path d="M 6.590972900390625 1.414222717285156 L 1.414222717285156 6.590972900390625 L 6.590972900390625 11.76772308349609 L 11.76772308349609 6.590972900390625 L 6.590972900390625 1.414222717285156 M 6.590972900390625 2.86102294921875e-06 L 13.1819429397583 6.590972900390625 L 6.590972900390625 13.1819429397583 L 2.86102294921875e-06 6.590972900390625 L 6.590972900390625 2.86102294921875e-06 Z" stroke="none" fill="#c272d0" />
    </g>
    <g className="slide3_mini2" transform="matrix(0.799, -0.602, 0.602, 0.799, 512.861, 258.703)" fill="none" stroke-linecap="round" stroke-linejoin="round">
      <path d="M6.591,0l6.591,6.591L6.591,13.182,0,6.591Z" stroke="none" />
      <path d="M 6.590972900390625 1.414222717285156 L 1.414222717285156 6.590972900390625 L 6.590972900390625 11.76772308349609 L 11.76772308349609 6.590972900390625 L 6.590972900390625 1.414222717285156 M 6.590972900390625 2.86102294921875e-06 L 13.1819429397583 6.590972900390625 L 6.590972900390625 13.1819429397583 L 2.86102294921875e-06 6.590972900390625 L 6.590972900390625 2.86102294921875e-06 Z" stroke="none" fill="#7279d0" />
    </g>
    <g className="slide3_mini3" transform="translate(249.5 338)" fill="none" stroke-linecap="round" stroke-linejoin="round">
      <path d="M4.591,0,9.182,4.591,4.591,9.182,0,4.591Z" stroke="none" />
      <path d="M 4.590972900390625 1.414222717285156 L 1.414222717285156 4.590972900390625 L 4.590972900390625 7.767723083496094 L 7.767723083496094 4.590972900390625 L 4.590972900390625 1.414222717285156 M 4.590972900390625 2.86102294921875e-06 L 9.181942939758301 4.590972900390625 L 4.590972900390625 9.181942939758301 L 2.86102294921875e-06 4.590972900390625 L 4.590972900390625 2.86102294921875e-06 Z" stroke="none" fill="#eb7070" />
    </g>
    <g className="slide3_mini4" transform="translate(459.5 288)" fill="none" stroke-linecap="round" stroke-linejoin="round">
      <path d="M3.172,2.828a4,4,0,0,1,5.657,0l.343.343a4,4,0,0,1,0,5.657l-.343.343a4,4,0,0,1-5.657,0l-.343-.343a4,4,0,0,1,0-5.657Z" stroke="none" />
      <path d="M 5.999999523162842 2.65684986114502 C 5.19866943359375 2.65684986114502 4.445309638977051 2.96890926361084 3.878679275512695 3.535539627075195 L 3.535539627075195 3.878679275512695 C 2.365839958190918 5.048379421234131 2.365839958190918 6.951619625091553 3.535539627075195 8.121319770812988 L 3.878679275512695 8.464459419250488 C 4.445299625396729 9.031089782714844 5.19866943359375 9.3431396484375 5.999999523162842 9.3431396484375 C 6.801329612731934 9.3431396484375 7.554699420928955 9.031089782714844 8.121319770812988 8.464459419250488 L 8.464459419250488 8.121319770812988 C 9.634159088134766 6.951619625091553 9.634159088134766 5.048379421234131 8.464459419250488 3.878679275512695 L 8.121319770812988 3.535539627075195 C 7.554689407348633 2.96890926361084 6.801329612731934 2.65684986114502 5.999999523162842 2.65684986114502 M 5.999999523162842 1.656854629516602 C 7.023689746856689 1.656854629516602 8.047379493713379 2.047379493713379 8.828429222106934 2.828429222106934 L 9.17156982421875 3.17156982421875 C 10.73366928100586 4.733669757843018 10.73366928100586 7.266329288482666 9.17156982421875 8.828429222106934 L 8.828429222106934 9.17156982421875 C 7.266329765319824 10.73366928100586 4.733669281005859 10.73366928100586 3.17156982421875 9.17156982421875 L 2.828429222106934 8.828429222106934 C 1.266329765319824 7.266329288482666 1.266329765319824 4.733669757843018 2.828429222106934 3.17156982421875 L 3.17156982421875 2.828429222106934 C 3.952619552612305 2.047379493713379 4.976309299468994 1.656854629516602 5.999999523162842 1.656854629516602 Z" stroke="none" fill="#e9aa1b" />
    </g>
    <g className="slide3_mini5" transform="translate(643 586)" fill="none" stroke-linecap="round" stroke-linejoin="round">
      <path d="M4.5,0,9,8H0Z" stroke="none" />
      <path d="M 4.5 2.039735317230225 L 1.709851264953613 7 L 7.290148735046387 7 L 4.5 2.039735317230225 M 4.5 0 L 9 8 L 0 8 L 4.5 0 Z" stroke="none" fill="#63dafd" />
    </g>
    <g className="slide3_mini6" transform="matrix(0.921, 0.391, -0.391, 0.921, 394.314, 257.355)" fill="none" stroke-linecap="round" stroke-linejoin="round" opacity="0.125">
      <path d="M9.5,0,19,18H0Z" stroke="none" />
      <path d="M 9.5 2.142427444458008 L 1.658502578735352 17 L 17.34149742126465 17 L 9.5 2.142427444458008 M 9.5 0 L 19 18 L 0 18 L 9.5 0 Z" stroke="none" fill="#62a0ff" />
    </g>
    <g className="slide3_info1" transform="translate(570.093 348.514)">
      <path d="M24.807,10.362,176.111.57a8.025,8.025,0,0,1,3.377.488,7.469,7.469,0,0,1,2.693,1.759,7.74,7.74,0,0,1,1.734,2.763,8.715,8.715,0,0,1,.5,3.492L172.723,219.708a10.3,10.3,0,0,1-.93,3.762,9.7,9.7,0,0,1-2.13,2.976,8.93,8.93,0,0,1-3.011,1.889,8.424,8.424,0,0,1-3.574.51L7.383,217.424a6.343,6.343,0,0,1-2.824-.9,7.355,7.355,0,0,1-2.185-2.055,8.917,8.917,0,0,1-1.339-2.9,10.175,10.175,0,0,1-.286-3.45L16.905,19.006a10.006,10.006,0,0,1,.836-3.221,10.133,10.133,0,0,1,1.761-2.7,8.939,8.939,0,0,1,2.438-1.9A7.182,7.182,0,0,1,24.807,10.362Z" transform="translate(3.252 4.645)" fill="#d1d1d1" opacity="0.196" />
      <path d="M24.827,10.714,175.375.589a7.961,7.961,0,0,1,3.359.478,7.4,7.4,0,0,1,2.677,1.746,7.678,7.678,0,0,1,1.723,2.748,8.679,8.679,0,0,1,.495,3.477l-11.794,209.8a10.3,10.3,0,0,1-.928,3.749,9.706,9.706,0,0,1-2.12,2.969,8.922,8.922,0,0,1-3,1.89,8.383,8.383,0,0,1-3.555.518L7.347,217.038a6.289,6.289,0,0,1-2.81-.892,7.284,7.284,0,0,1-2.173-2.04,8.85,8.85,0,0,1-1.331-2.886,10.136,10.136,0,0,1-.282-3.436L16.957,19.346a10,10,0,0,1,.834-3.211,10.14,10.14,0,0,1,1.755-2.692,8.938,8.938,0,0,1,2.428-1.9A7.16,7.16,0,0,1,24.827,10.714Z" transform="translate(0.353 0.662)" fill="#fff" />
      <g transform="translate(23.047 31.765)" opacity="0.476">
        <g transform="translate(11.703)">
          <path d="M7.861.337a5.211,5.211,0,0,1,2.519.49,5.542,5.542,0,0,1,1.968,1.59,6.957,6.957,0,0,1,1.221,2.451,8.8,8.8,0,0,1,.275,3.066,9.971,9.971,0,0,1-.771,3.118,9.62,9.62,0,0,1-1.628,2.589A8.008,8.008,0,0,1,9.2,15.433a6.166,6.166,0,0,1-2.625.729,5.2,5.2,0,0,1-2.515-.518,5.563,5.563,0,0,1-1.95-1.609,6.99,6.99,0,0,1-1.2-2.45A8.821,8.821,0,0,1,.65,8.539a9.973,9.973,0,0,1,.767-3.09A9.628,9.628,0,0,1,3.026,2.879,8.035,8.035,0,0,1,5.249,1.087,6.2,6.2,0,0,1,7.861.337Z" transform="translate(0 2.916)" fill="#e5ecf9" />
          <path d="M5.971,4.8,97.985.283a5.188,5.188,0,0,1,2.207.362,4.949,4.949,0,0,1,1.753,1.2A5.238,5.238,0,0,1,103.067,3.7a5.919,5.919,0,0,1,.315,2.325,6.657,6.657,0,0,1-.594,2.369,6.976,6.976,0,0,1-1.352,1.972,6.648,6.648,0,0,1-1.91,1.371,5.879,5.879,0,0,1-2.267.568L5.1,16.159a4.265,4.265,0,0,1-3.481-1.511,4.919,4.919,0,0,1-.951-1.754A5.885,5.885,0,0,1,.44,10.708a6.683,6.683,0,0,1,.57-2.221,6.778,6.778,0,0,1,1.229-1.85A6.1,6.1,0,0,1,3.951,5.347,5.068,5.068,0,0,1,5.971,4.8Z" transform="translate(26.793 0)" fill="#e5ecf9" />
        </g>
        <g transform="translate(9.393 30.254)">
          <path d="M7.9.217A5.249,5.249,0,0,1,10.424.76,5.719,5.719,0,0,1,12.4,2.406a7.213,7.213,0,0,1,1.224,2.5A9.016,9.016,0,0,1,13.9,8.015a10.025,10.025,0,0,1-.775,3.139,9.508,9.508,0,0,1-1.635,2.588,7.838,7.838,0,0,1-2.255,1.77A6.067,6.067,0,0,1,6.6,16.2a5.245,5.245,0,0,1-2.524-.572,5.743,5.743,0,0,1-1.956-1.664,7.247,7.247,0,0,1-1.2-2.5A9.035,9.035,0,0,1,.657,8.378a10.027,10.027,0,0,1,.771-3.111A9.517,9.517,0,0,1,3.043,2.7,7.865,7.865,0,0,1,5.275.926,6.094,6.094,0,0,1,7.9.217Z" transform="translate(0 0.769)" fill="#e5ecf9" />
          <path d="M6,3.023,98.378.178a5.223,5.223,0,0,1,2.216.408,5.1,5.1,0,0,1,1.76,1.247,5.437,5.437,0,0,1,1.127,1.9A6.076,6.076,0,0,1,103.8,6.09a6.692,6.692,0,0,1-.6,2.386,6.884,6.884,0,0,1-1.358,1.97A6.509,6.509,0,0,1,99.922,11.8a5.8,5.8,0,0,1-2.277.532L5.118,14.494a4.364,4.364,0,0,1-1.962-.4A4.439,4.439,0,0,1,1.626,12.9a5.1,5.1,0,0,1-.953-1.793A6.032,6.032,0,0,1,.444,8.891,6.738,6.738,0,0,1,2.252,4.808,5.968,5.968,0,0,1,3.971,3.534,4.989,4.989,0,0,1,6,3.023Z" transform="translate(26.889 0)" fill="#e5ecf9" />
        </g>
        <g transform="translate(7.06 59.414)" opacity="0">
          <path d="M7.933.094a5.293,5.293,0,0,1,2.536.6,5.905,5.905,0,0,1,1.981,1.7,7.479,7.479,0,0,1,1.227,2.554A9.236,9.236,0,0,1,13.95,8.1a10.081,10.081,0,0,1-.78,3.161,9.4,9.4,0,0,1-1.642,2.588,7.67,7.67,0,0,1-2.264,1.748,5.972,5.972,0,0,1-2.644.646,5.293,5.293,0,0,1-2.532-.626,5.932,5.932,0,0,1-1.962-1.721,7.513,7.513,0,0,1-1.2-2.553,9.254,9.254,0,0,1-.26-3.127,10.082,10.082,0,0,1,.775-3.132A9.4,9.4,0,0,1,3.061,2.511,7.7,7.7,0,0,1,5.3.762,6,6,0,0,1,7.933.094Z" fill="#e5ecf9" />
          <path d="M6.027,1.2,98.775.071a5.218,5.218,0,0,1,3.992,1.75A5.644,5.644,0,0,1,103.9,3.763a6.238,6.238,0,0,1,.316,2.394,6.776,6.776,0,0,1-1.966,4.372,6.371,6.371,0,0,1-1.927,1.331,5.716,5.716,0,0,1-2.287.495l-92.9.437a4.4,4.4,0,0,1-1.968-.446,4.58,4.58,0,0,1-1.536-1.233A5.292,5.292,0,0,1,.677,9.281,6.184,6.184,0,0,1,.449,7.035a6.749,6.749,0,0,1,.577-2.251,6.606,6.606,0,0,1,1.24-1.846A5.839,5.839,0,0,1,3.991,1.682,4.914,4.914,0,0,1,6.027,1.2Z" transform="translate(26.986 1.424)" fill="#e5ecf9" />
        </g>
        <g transform="translate(4.704 88.031)">
          <path d="M7.969.031a5.344,5.344,0,0,1,2.545.652A6.1,6.1,0,0,1,12.5,2.444a7.755,7.755,0,0,1,1.23,2.608A9.462,9.462,0,0,1,14,8.242a10.137,10.137,0,0,1-.784,3.184,9.283,9.283,0,0,1-1.649,2.587A7.5,7.5,0,0,1,9.3,15.737a5.882,5.882,0,0,1-2.654.6A5.347,5.347,0,0,1,4.1,15.659a6.131,6.131,0,0,1-1.968-1.778A7.79,7.79,0,0,1,.929,11.275,9.479,9.479,0,0,1,.67,8.107a10.137,10.137,0,0,1,.78-3.154,9.294,9.294,0,0,1,1.63-2.569A7.532,7.532,0,0,1,5.329.657,5.905,5.905,0,0,1,7.969.031Z" transform="translate(0)" fill="#e5ecf9" />
          <path d="M6.055.034,99.174.65a5.312,5.312,0,0,1,2.235.5A5.42,5.42,0,0,1,103.183,2.5a5.86,5.86,0,0,1,1.135,1.987,6.4,6.4,0,0,1,.316,2.429,6.746,6.746,0,0,1-1.976,4.387,6.235,6.235,0,0,1-1.936,1.311,5.641,5.641,0,0,1-2.3.457L5.156,11.742a4.441,4.441,0,0,1-1.976-.489A4.728,4.728,0,0,1,1.639,9.977,5.491,5.491,0,0,1,.681,8.105,6.34,6.34,0,0,1,.454,5.828a6.783,6.783,0,0,1,.58-2.266A6.52,6.52,0,0,1,2.279,1.717,5.713,5.713,0,0,1,4.011.479,4.842,4.842,0,0,1,6.055.034Z" transform="translate(27.084 3.037)" fill="#e5ecf9" />
        </g>
        <g transform="translate(2.324 116.748)">
          <path d="M8.006.158A5.4,5.4,0,0,1,10.56.867a6.309,6.309,0,0,1,1.993,1.819,8.042,8.042,0,0,1,1.233,2.662,9.694,9.694,0,0,1,.272,3.233,10.193,10.193,0,0,1-.788,3.206,9.171,9.171,0,0,1-1.656,2.586,7.341,7.341,0,0,1-2.282,1.7,5.8,5.8,0,0,1-2.664.56A5.408,5.408,0,0,1,4.118,15.9a6.341,6.341,0,0,1-1.973-1.837A8.078,8.078,0,0,1,.935,11.4a9.71,9.71,0,0,1-.258-3.21,10.194,10.194,0,0,1,.784-3.176A9.182,9.182,0,0,1,3.1,2.446,7.368,7.368,0,0,1,5.356.741,5.817,5.817,0,0,1,8.006.158Z" fill="rgba(229,236,249,0.57)" />
          <path d="M6.083.133l93.493,2.4a5.367,5.367,0,0,1,2.244.551A5.6,5.6,0,0,1,103.6,4.482a6.086,6.086,0,0,1,1.139,2.033,6.576,6.576,0,0,1,.316,2.464,6.8,6.8,0,0,1-.608,2.439,6.61,6.61,0,0,1-1.378,1.964,6.1,6.1,0,0,1-1.945,1.289,5.571,5.571,0,0,1-2.307.419L5.175,11.962a4.488,4.488,0,0,1-1.983-.533,4.885,4.885,0,0,1-1.546-1.321A5.7,5.7,0,0,1,.685,8.2,6.5,6.5,0,0,1,.458,5.889a6.818,6.818,0,0,1,.583-2.282A6.434,6.434,0,0,1,2.292,1.764,5.588,5.588,0,0,1,4.032.544,4.774,4.774,0,0,1,6.083.133Z" transform="translate(27.181 3.581)" fill="rgba(229,236,249,0.57)" />
        </g>
        <g transform="translate(0 144.786)">
          <path d="M8.042.283a5.465,5.465,0,0,1,2.562.764,6.519,6.519,0,0,1,2,1.876,8.33,8.33,0,0,1,1.236,2.715,9.925,9.925,0,0,1,.272,3.275,10.249,10.249,0,0,1-.793,3.228,9.062,9.062,0,0,1-1.663,2.584,7.186,7.186,0,0,1-2.29,1.679,5.718,5.718,0,0,1-2.673.517,5.475,5.475,0,0,1-2.558-.794,6.555,6.555,0,0,1-1.979-1.894A8.366,8.366,0,0,1,.941,11.522,9.939,9.939,0,0,1,.684,8.27a10.249,10.249,0,0,1,.788-3.2A9.074,9.074,0,0,1,3.116,2.506,7.213,7.213,0,0,1,5.383.824,5.737,5.737,0,0,1,8.042.283Z" transform="translate(0 0)" fill="rgba(229,236,249,0.57)" />
          <path d="M6.111.23,99.967,4.4a5.426,5.426,0,0,1,2.254.6,5.774,5.774,0,0,1,1.788,1.444,6.313,6.313,0,0,1,1.143,2.079,6.746,6.746,0,0,1,.317,2.5,6.836,6.836,0,0,1-.611,2.457,6.521,6.521,0,0,1-1.385,1.961,5.975,5.975,0,0,1-1.954,1.268,5.507,5.507,0,0,1-2.317.381L5.193,12.179A4.539,4.539,0,0,1,3.2,11.6a5.044,5.044,0,0,1-1.551-1.365A5.9,5.9,0,0,1,.69,8.286,6.659,6.659,0,0,1,.463,5.948a6.851,6.851,0,0,1,.586-2.3A6.351,6.351,0,0,1,2.305,1.81,5.47,5.47,0,0,1,4.052.608,4.712,4.712,0,0,1,6.111.23Z" transform="translate(27.277 4.118)" fill="rgba(229,236,249,0.57)" />
        </g>
      </g>
      <g transform="translate(14.405 73.299)">
        <g transform="translate(4.235 7.051)">
          <g transform="matrix(1, 0, 0, 1, -396.89, -180.36)" filter="url(#r1)">
            <path d="M19.294,7.145a7.316,7.316,0,0,1,3.332.726,7.669,7.669,0,0,1,2.612,2.093,9.04,9.04,0,0,1,1.629,3.15A10.756,10.756,0,0,1,27.248,17a11.815,11.815,0,0,1-1,3.908,11.475,11.475,0,0,1-2.141,3.2,9.96,9.96,0,0,1-2.963,2.161,8.212,8.212,0,0,1-3.467.8A7.307,7.307,0,0,1,14.35,26.3a7.7,7.7,0,0,1-2.579-2.122,9.081,9.081,0,0,1-1.59-3.146,10.78,10.78,0,0,1-.358-3.853,11.818,11.818,0,0,1,1-3.862,11.486,11.486,0,0,1,2.108-3.171A9.995,9.995,0,0,1,15.85,7.98,8.249,8.249,0,0,1,19.294,7.145Z" transform="translate(396.89 180.36)" fill="#020d24" />
          </g>
          <g transform="matrix(1, 0, 0, 1, -396.89, -180.36)" filter="url(#t1)">
            <path d="M17.116,3.046,132.628,1.132a7.351,7.351,0,0,1,3.062.6,7.238,7.238,0,0,1,2.441,1.74,7.62,7.62,0,0,1,1.572,2.62,8.3,8.3,0,0,1,.454,3.236l-.057,1.043a8.956,8.956,0,0,1-.808,3.255,9.145,9.145,0,0,1-1.865,2.668,8.725,8.725,0,0,1-2.643,1.806,7.952,7.952,0,0,1-3.142.674l-115.779.69a5.888,5.888,0,0,1-2.632-.592,6.107,6.107,0,0,1-2.053-1.641A7.037,7.037,0,0,1,9.9,14.793,8.221,8.221,0,0,1,9.6,11.8l.075-.962a8.991,8.991,0,0,1,.768-3,8.835,8.835,0,0,1,1.653-2.464A7.836,7.836,0,0,1,14.4,3.7,6.6,6.6,0,0,1,17.116,3.046Z" transform="translate(427.35 183.99)" fill="#d1d1d1" />
          </g>
        </g>
        <g transform="translate(7.783 4.626)" fill="none" stroke-linecap="round" stroke-linejoin="round">
          <path d="M4.339,13.366l9.28,8.129L30.637,4.119" stroke="none" />
          <path d="M 13.385817527771 24.34199333190918 C 13.25864601135254 24.34286117553711 13.13241672515869 24.3326416015625 13.00853824615479 24.31124305725098 C 12.88444900512695 24.28985404968262 12.76223945617676 24.2573184967041 12.64334201812744 24.21344375610352 C 12.52422714233398 24.16960334777832 12.40889167785645 24.11448287963867 12.29709911346436 24.04793930053711 C 12.18603324890137 23.98141479492188 12.07898807525635 23.90354537963867 11.97713565826416 23.81418991088867 L 2.715340375900269 15.67135429382324 C 2.460295438766479 15.44721412658691 2.262729406356812 15.16929054260254 2.123768091201782 14.85863208770752 C 1.985319256782532 14.54811096191406 1.905186057090759 14.20489406585693 1.885446071624756 13.84992599487305 C 1.865243792533875 13.49499416351318 1.904707908630371 13.12833118438721 2.005475044250488 12.77087783813477 C 2.105539798736572 12.41348934173584 2.267152786254883 12.06524467468262 2.491053104400635 11.74711990356445 C 2.626667737960815 11.55461978912354 2.776772022247314 11.38416004180908 2.938341379165649 11.23661231994629 C 3.099701166152954 11.08898258209229 3.271837949752808 10.96420288085938 3.451027393341064 10.86309719085693 C 3.63025164604187 10.76200103759766 3.816303253173828 10.68460655212402 4.004987239837646 10.63168048858643 C 4.193480968475342 10.57871246337891 4.38508129119873 10.55037117004395 4.575119018554688 10.54730415344238 C 4.699264049530029 10.54531574249268 4.822741508483887 10.55413246154785 4.944847583770752 10.57397937774658 C 5.066740989685059 10.59383010864258 5.186799049377441 10.62471866607666 5.303614139556885 10.66686630249023 C 5.420917510986328 10.70902252197266 5.535447597503662 10.7625093460083 5.64603328704834 10.82749271392822 C 5.75640344619751 10.89245510101318 5.862594604492188 10.96894836425781 5.963667392730713 11.05720043182373 L 13.68962669372559 17.79957962036133 L 29.04363441467285 2.100267887115479 C 29.17695236206055 1.964174389839172 29.31717109680176 1.844662547111511 29.46330070495605 1.741759181022644 C 29.60944557189941 1.638781428337097 29.76079750061035 1.552413821220398 29.91542625427246 1.482597351074219 C 30.07008171081543 1.412768959999084 30.22729110717773 1.359553933143616 30.3861026763916 1.322896361351013 C 30.54444885253906 1.286260485649109 30.70393180847168 1.266187787055969 30.86162185668945 1.262738704681396 C 31.02779197692871 1.25911808013916 31.19172859191895 1.273815274238586 31.35220336914062 1.306687116622925 C 31.5127124786377 1.339625239372253 31.66879844665527 1.39083456993103 31.81852340698242 1.460349082946777 C 31.96828651428223 1.529879570007324 32.1119270324707 1.617723822593689 32.24607086181641 1.723885059356689 C 32.37998580932617 1.830039381980896 32.50511932373047 1.954489231109619 32.61782836914062 2.097293853759766 C 32.83891296386719 2.376377105712891 32.9937858581543 2.698988437652588 33.08489227294922 3.043443202972412 C 33.17603302001953 3.387964487075806 33.20310592651367 3.754288911819458 33.16862106323242 4.120671272277832 C 33.13412094116211 4.48709774017334 33.03779602050781 4.853461265563965 32.88143539428711 5.198115825653076 C 32.72530364990234 5.542692184448242 32.5094108581543 5.865472793579102 32.23532104492188 6.144665241241455 L 15.17991256713867 23.53104209899902 C 15.04912662506104 23.66409683227539 14.91092109680176 23.78105926513672 14.7669792175293 23.88171195983887 C 14.62305068969727 23.98234176635742 14.4738655090332 24.06669616699219 14.32132816314697 24.13454627990723 C 14.16928291320801 24.20234870910645 14.01365184783936 24.2536735534668 13.85704612731934 24.2883243560791 C 13.70046806335449 24.32296371459961 13.54244041442871 24.34092140197754 13.385817527771 24.34199333190918 Z" stroke="none" fill="#fff" />
        </g>
        <g transform="matrix(1, 0, 0, 1, -392.66, -173.31)" filter="url(#v1)">
          <g transform="translate(392.66 173.31)" fill="none" stroke-linecap="round" stroke-linejoin="round">
            <path d="M12.122,17.991,21.4,26.12,38.42,8.745" stroke="none" />
            <path d="M 21.24663162231445 28.01795959472656 C 21.1619758605957 28.01860237121582 21.0780029296875 28.0118579864502 20.99543762207031 27.99765777587891 C 20.91240119934082 27.98344802856445 20.83077430725098 27.96176147460938 20.75173568725586 27.9326057434082 C 20.6724681854248 27.90341949462891 20.59555816650391 27.8667106628418 20.52101135253906 27.82240295410156 C 20.44670295715332 27.77809524536133 20.37499046325684 27.72624588012695 20.30706405639648 27.66670036315918 L 11.03932666778564 19.52855110168457 C 10.86895179748535 19.37917709350586 10.73726367950439 19.19397163391113 10.64427661895752 18.98686981201172 C 10.5520076751709 18.77978134155273 10.49865245819092 18.55085754394531 10.48493671417236 18.3141040802002 C 10.47144985198975 18.07743072509766 10.49782657623291 17.83282470703125 10.56502819061279 17.59444427490234 C 10.631760597229 17.35603523254395 10.74002742767334 17.12368774414062 10.88941192626953 16.91150283813477 C 10.97965621948242 16.78314018249512 11.07980346679688 16.66949844360352 11.18727493286133 16.57107162475586 C 11.29498958587646 16.47266578674316 11.41026592254639 16.38947296142578 11.52959537506104 16.32210922241211 C 11.64917182922363 16.25473403930664 11.77327060699463 16.20321846008301 11.89907741546631 16.1679744720459 C 12.02513980865479 16.13275718688965 12.15291023254395 16.11387062072754 12.27933979034424 16.11189842224121 C 12.3620719909668 16.11062622070312 12.44436550140381 16.1165771484375 12.5257453918457 16.12985420227051 C 12.60690689086914 16.14314270019531 12.68691730499268 16.16375350952148 12.76531314849854 16.19195556640625 C 12.84348011016846 16.22012710571289 12.91957092285156 16.25580978393555 12.99310111999512 16.29918670654297 C 13.06663513183594 16.34256553649902 13.13762187957764 16.39356994628906 13.20487308502197 16.45246887207031 L 21.44893836975098 23.65603446960449 L 37.35746765136719 7.398145198822021 C 37.44638442993164 7.307412624359131 37.5400390625 7.227717876434326 37.63740539550781 7.15910530090332 C 37.73479843139648 7.090489864349365 37.8354606628418 7.032932281494141 37.93864059448242 6.986396312713623 C 38.0416145324707 6.939947128295898 38.14686584472656 6.904491901397705 38.25272369384766 6.880056858062744 C 38.35834503173828 6.855705261230469 38.46456146240234 6.842405319213867 38.57017135620117 6.840154647827148 C 38.68064498901367 6.837835311889648 38.79028701782227 6.847665309906006 38.89713287353516 6.869693756103516 C 39.00399398803711 6.891696453094482 39.10783004760742 6.925902366638184 39.20742034912109 6.972338199615479 C 39.3077507019043 7.018754959106445 39.40309906005859 7.077341079711914 39.49250793457031 7.148128986358643 C 39.58191680908203 7.218953609466553 39.66464996337891 7.302008152008057 39.73997116088867 7.397260189056396 C 39.8874397277832 7.583309173583984 39.99042892456055 7.798378944396973 40.05173110961914 8.027942657470703 C 40.11231231689453 8.257543563842773 40.13067245483398 8.501674652099609 40.1074104309082 8.745748519897461 C 40.08415603637695 8.989873886108398 40.02000045776367 9.234007835388184 39.915771484375 9.463613510131836 C 39.81155776977539 9.693243026733398 39.66729736328125 9.908350944519043 39.48506164550781 10.09440994262695 L 22.44175148010254 27.47693252563477 C 22.35480308532715 27.56565093994141 22.26255226135254 27.64364051818848 22.16690826416016 27.71075248718262 C 22.0710391998291 27.77783203125 21.97177314758301 27.83405685424805 21.87008666992188 27.87935638427734 C 21.76840591430664 27.92461395263672 21.6642951965332 27.95884132385254 21.56013679504395 27.98202133178711 C 21.45599365234375 28.00514221191406 21.35061836242676 28.01717376708984 21.24663162231445 28.01795959472656 Z" stroke="none" fill="#e9a919" />
          </g>
        </g>
      </g>
    </g>
  </g>
</svg>