<svg xmlns="http://www.w3.org/2000/svg" version="1.1" xmlns:xlink="http://www.w3.org/1999/xlink" xmlns:svgjs="http://svgjs.com/svgjs" width="1440" height="250" preserveAspectRatio="none" viewBox="0 0 1440 250"><g mask="url(&quot;#SvgjsMask1000&quot;)" fill="none"><path d="M32 250L282 0L429 0L179 250z" fill="url(#SvgjsLinearGradient1001)"></path><path d="M263.6 250L513.6 0L662.1 0L412.1 250z" fill="url(#SvgjsLinearGradient1001)"></path><path d="M505.20000000000005 250L755.2 0L950.2 0L700.2 250z" fill="url(#SvgjsLinearGradient1001)"></path><path d="M745.8000000000001 250L995.8000000000001 0L1171.3000000000002 0L921.3000000000001 250z" fill="url(#SvgjsLinearGradient1001)"></path><path d="M1413 250L1163 0L1050.5 0L1300.5 250z" fill="url(#SvgjsLinearGradient1002)"></path><path d="M1191.4 250L941.4000000000001 0L803.4000000000001 0L1053.4 250z" fill="url(#SvgjsLinearGradient1002)"></path><path d="M955.8 250L705.8 0L588.8 0L838.8 250z" fill="url(#SvgjsLinearGradient1002)"></path><path d="M690.1999999999999 250L440.19999999999993 0L375.69999999999993 0L625.6999999999999 250z" fill="url(#SvgjsLinearGradient1002)"></path><path d="M1280.6969371516727 250L1440 90.69693715167276L1440 250z" fill="url(#SvgjsLinearGradient1001)"></path><path d="M0 250L159.30306284832724 250L 0 90.69693715167276z" fill="url(#SvgjsLinearGradient1002)"></path></g><defs><mask id="SvgjsMask1000"><rect width="1440" height="250" fill="#ffffff"></rect></mask><linearGradient x1="0%" y1="100%" x2="100%" y2="0%" id="SvgjsLinearGradient1001"><stop stop-color="rgba(15, 70, 185, 0.2)" offset="0"></stop><stop stop-opacity="0" stop-color="rgba(15, 70, 185, 0.2)" offset="0.66"></stop></linearGradient><linearGradient x1="100%" y1="100%" x2="0%" y2="0%" id="SvgjsLinearGradient1002"><stop stop-color="rgba(15, 70, 185, 0.2)" offset="0"></stop><stop stop-opacity="0" stop-color="rgba(15, 70, 185, 0.2)" offset="0.66"></stop></linearGradient></defs></svg>